<svg xmlns="http://www.w3.org/2000/svg" width="24" height="24" viewBox="0 0 24 24" fill="none">
  <path d="M9 15L20 4" stroke="black" stroke-width="1.5" stroke-linecap="round" stroke-linejoin="round"/>
  <path d="M20 4L13.5 22C13.4561 22.0957 13.3857 22.1769 13.2971 22.2338C13.2084 22.2906 13.1053 22.3209 13 22.3209C12.8947 22.3209 12.7916 22.2906 12.703 22.2338C12.6143 22.1769 12.5439 22.0957 12.5 22L9.00001 15L2.00001 11.5C1.90427 11.4561 1.82314 11.3857 1.76626 11.2971C1.70938 11.2084 1.67914 11.1053 1.67914 11C1.67914 10.8947 1.70938 10.7916 1.76626 10.7029C1.82314 10.6143 1.90427 10.5439 2.00001 10.5L20 4Z" stroke="black" stroke-width="1.5" stroke-linecap="round" stroke-linejoin="round"/>
</svg>